:SAMPLES-PER-SECOND 24
:FULLY-SPECIFIED
:DEGREES
247
root  -4.25123 42.2196 0.548094 128.128 -45.9781 -132.481
RightUpLeg  -50.5027 -37.7839 -28.7638
RightLeg  118.919 -6.06283 10.7004
RightFoot  -15.9911 0.21496 7.95849
RightToes  -1.74623e-010 0 -2.59999e-017
Spine  3.71128 0.342576 -1.08483
Spine1  12.2652 -6.26766 17.8358
HEad  3.13629 -33.3362 13.3426
LeftShoulder1  2.46004 -4.03868 -26.4993
LeftArm  25.0048 0.84409 -48.7713
LeftForeArm  22.2291 -62.1472 -19.57
LeftHand  -0.53164 2.17985 19.0898
RightShoulder  3.85919 6.04151 34.5422
RightArm  -0.99792 -20.6358 26.6584
RightForeArm  158.451 50.1875 167.057
RightHand  -0.198379 -1.83445 -6.24663
LeftUpLeg  2.60186 20.6374 23.8372
LeftLeg  21.4563 30.3716 9.85177
LeftFoot  6.31407 -0.109884 0.460316
LeftToes  -6.27559e-011 -2.10356e-011 8.24929e-012
248
root  -4.4227 42.0087 1.23094 138.909 -44.1862 -145.356
RightUpLeg  -53.44 -30.2299 -25.9807
RightLeg  118.867 -5.47403 9.77501
RightFoot  -15.6335 0.137707 6.50805
RightToes  -1.74623e-010 0 -2.59999e-017
Spine  3.13459 1.63433 0.371842
Spine1  13.4452 -3.15418 12.8577
HEad  3.17861 -31.4318 11.8695
LeftShoulder1  2.46565 -3.97484 -26.865
LeftArm  22.0048 6.31612 -46.1536
LeftForeArm  24.5092 -63.5671 -20.7138
LeftHand  -0.527144 1.88614 17.3567
RightShoulder  3.87655 6.07536 34.5801
RightArm  -1.35544 -19.6493 28.9413
RightForeArm  159.586 50.5814 166.969
RightHand  -0.221558 -1.61234 -6.63162
LeftUpLeg  2.26921 8.29083 17.3113
LeftLeg  25.0077 5.98791 3.62177
LeftFoot  8.89398 -0.705491 3.66859
LeftToes  -6.27559e-011 -2.10356e-011 8.24929e-012
249
root  -4.5599 41.2015 1.9741 147.875 -40.4373 -154.994
RightUpLeg  -55.1174 -23.3467 -21.8743
RightLeg  118.062 -4.97247 9.24532
RightFoot  -15.6842 0.126327 6.14014
RightToes  -1.74623e-010 0 -2.59999e-017
Spine  2.86 2.97713 3.34107
Spine1  13.9359 0.215802 8.04706
HEad  0.884406 -29.9589 11.2858
LeftShoulder1  2.38898 -3.97331 -25.8067
LeftArm  19.5806 10.8524 -45.1996
LeftForeArm  25.151 -64.5084 -21.6736
LeftHand  -0.452509 2.6243 18.875
RightShoulder  3.82557 6.0504 34.1566
RightArm  -1.94038 -17.8674 30.1786
RightForeArm  160.503 50.5301 167.057
RightHand  -0.209816 -1.59578 -6.23461
LeftUpLeg  2.14046 -8.669 11.5886
LeftLeg  26.7035 -7.66253 -3.76628
LeftFoot  3.17959 -0.237106 1.5346
LeftToes  -6.27559e-011 -2.10356e-011 8.24929e-012
250
root  -4.68113 40.3092 2.66708 155.825 -35.8673 -162.999
RightUpLeg  -54.2376 -17.6026 -17.2824
RightLeg  115.376 -3.48992 7.4758
RightFoot  -15.376 0.08066 5.23646
RightToes  -1.74623e-010 0 -2.59999e-017
Spine  2.85422 4.27083 4.611
Spine1  13.782 3.09409 3.06865
HEad  -2.42291 -27.8972 10.2815
LeftShoulder1  2.33157 -3.83625 -25.6139
LeftArm  17.9771 14.001 -43.3112
LeftForeArm  25.0873 -66.1075 -23.6794
LeftHand  -0.313756 3.67977 20.9387
RightShoulder  3.63712 5.90756 32.7645
RightArm  -2.80464 -14.5856 31.751
RightForeArm  160.45 51.2418 166.745
RightHand  -0.194324 -1.85419 -6.14474
LeftUpLeg  1.64207 -8.54566 6.44772
LeftLeg  25.2859 -8.80999 -4.18195
LeftFoot  -2.2914 -0.185939 2.51749
LeftToes  -6.27559e-011 -2.10356e-011 8.24929e-012
251
root  -4.71621 39.4108 3.39069 162.206 -32.9592 -168.321
RightUpLeg  -49.8085 -16.0499 -12.8065
RightLeg  110.114 -2.1639 6.22352
RightFoot  -14.2372 0.0317606 5.07451
RightToes  -1.74623e-010 0 -2.59999e-017
Spine  2.35732 4.60851 3.0035
Spine1  14.0057 3.66485 1.67262
HEad  -7.03877 -25.2114 9.49131
LeftShoulder1  2.3552 -3.69598 -26.5969
LeftArm  16.5352 15.0916 -41.5966
LeftForeArm  24.5039 -66.0993 -23.7394
LeftHand  -0.290982 3.80528 20.8976
RightShoulder  3.54451 5.82803 32.1018
RightArm  -4.44601 -8.92992 31.7293
RightForeArm  160.458 53.3752 165.754
RightHand  -0.190453 -2.03291 -6.31032
LeftUpLeg  -1.97852 -0.133052 1.84696
LeftLeg  25.1023 -4.21963 -1.79931
LeftFoot  -5.99866 -0.378989 8.87987
LeftToes  -6.27559e-011 -2.10356e-011 8.24929e-012
252
root  -4.65333 38.8266 4.09275 166.864 -32.1148 -171.239
RightUpLeg  -41.6097 -18.2646 -8.78662
RightLeg  101.292 -0.998347 5.60042
RightFoot  -13.0689 0.0134305 6.75398
RightToes  -1.74623e-010 0 -2.59999e-017
Spine  1.16988 4.24474 0.346241
Spine1  14.972 2.66019 3.3511
HEad  -11.817 -23.6206 9.8646
LeftShoulder1  2.38715 -3.73104 -26.8909
LeftArm  16.403 13.6942 -42.2307
LeftForeArm  19.7957 -61.6426 -19.4404
LeftHand  -0.325282 3.63888 21.195
RightShoulder  3.78679 6.03193 33.8242
RightArm  -7.06059 -4.15284 29.753
RightForeArm  160.603 56.0001 164.409
RightHand  -0.174436 -2.443 -6.49184
LeftUpLeg  -7.24299 3.15418 -1.23946
LeftLeg  27.1023 -3.74277 -1.7265
LeftFoot  -7.46218 -0.332983 11.0867
LeftToes  -6.27559e-011 -2.10356e-011 8.24929e-012
